{"asset":{"version":"2.0","generator":"Blockbench 4.12.4 glTF exporter"},"scenes":[{"nodes":[3],"name":"blockbench_export"}],"scene":0,"nodes":[{"rotation":[0,0,-1,6.123233995736766e-17],"translation":[0.0625,0.875,0],"name":"cylinder","mesh":0},{"translation":[0.0625,0.09375,0],"name":"cylinder","mesh":1},{"translation":[0,0.5625,-0.2390625],"name":"beveled_cuboid","mesh":2},{"children":[0,1,2]}],"bufferViews":[{"buffer":0,"byteOffset":0,"byteLength":1632,"target":34962,"byteStride":12},{"buffer":0,"byteOffset":1632,"byteLength":1632,"target":34962,"byteStride":12},{"buffer":0,"byteOffset":3264,"byteLength":1088,"target":34962,"byteStride":8},{"buffer":0,"byteOffset":4352,"byteLength":360,"target":34963},{"buffer":0,"byteOffset":4712,"byteLength":960,"target":34962,"byteStride":12},{"buffer":0,"byteOffset":5672,"byteLength":960,"target":34962,"byteStride":12},{"buffer":0,"byteOffset":6632,"byteLength":640,"target":34962,"byteStride":8},{"buffer":0,"byteOffset":7272,"byteLength":192,"target":34963},{"buffer":0,"byteOffset":7464,"byteLength":1104,"target":34962,"byteStride":12},{"buffer":0,"byteOffset":8568,"byteLength":1104,"target":34962,"byteStride":12},{"buffer":0,"byteOffset":9672,"byteLength":736,"target":34962,"byteStride":8},{"buffer":0,"byteOffset":10408,"byteLength":252,"target":34963}],"buffers":[{"byteLength":10660,"uri":"data:application/octet-stream;base64,"}],"accessors":[{"bufferView":0,"componentType":5126,"count":136,"max":[0.25,0.875,0.25],"min":[-0.25,-0.375,-0.25],"type":"VEC3"},{"bufferView":1,"componentType":5126,"count":136,"max":[0.8944271802902222,1,1],"min":[-1,-1,-1],"type":"VEC3"},{"bufferView":2,"componentType":5126,"count":136,"max":[0.5625,0.5625],"min":[0,0],"type":"VEC2"},{"bufferView":3,"componentType":5123,"count":180,"max":[135],"min":[0],"type":"SCALAR"},{"bufferView":4,"componentType":5126,"count":80,"max":[0.25,0.03437500074505806,0.25],"min":[-0.25,0.02812499925494194,-0.25],"type":"VEC3"},{"bufferView":5,"componentType":5126,"count":80,"max":[1,1,1],"min":[-1,-1,-1],"type":"VEC3"},{"bufferView":6,"componentType":5126,"count":80,"max":[0.2705991566181183,0.2705991268157959],"min":[0,0],"type":"VEC2"},{"bufferView":7,"componentType":5123,"count":96,"max":[79],"min":[0],"type":"SCALAR"},{"bufferView":8,"componentType":5126,"count":92,"max":[0.03125,0.078125,0.0078125],"min":[-0.03125,-0.015625,-0.0078125],"type":"VEC3"},{"bufferView":9,"componentType":5126,"count":92,"max":[1,1,1],"min":[-1,-1,-0.986393928527832],"type":"VEC3"},{"bufferView":10,"componentType":5126,"count":92,"max":[0.08838749676942825,0.08839374780654907],"min":[0,0],"type":"VEC2"},{"bufferView":11,"componentType":5123,"count":126,"max":[91],"min":[0],"type":"SCALAR"}],"materials":[{"pbrMetallicRoughness":{"metallicFactor":0,"roughnessFactor":1},"alphaMode":"MASK","alphaCutoff":0.05,"doubleSided":true}],"meshes":[{"primitives":[{"mode":4,"attributes":{"POSITION":0,"NORMAL":1,"TEXCOORD_0":2},"indices":3,"material":0}]},{"primitives":[{"mode":4,"attributes":{"POSITION":4,"NORMAL":5,"TEXCOORD_0":6},"indices":7,"material":0}]},{"primitives":[{"mode":4,"attributes":{"POSITION":8,"NORMAL":9,"TEXCOORD_0":10},"indices":11,"material":0}]}]}